# xmcd
#
# Track frame offsets:
#	150
#	54586
#	73357
#	95445
#	111771
#	134359
#	158199
#	180807
#	200824
#	223839
#	246470
#	267463
#	281707
#	303778
#
# Disc length: 4409
#
# Revision: 1
# Processed by: cddbd v1.5.1PL0 Copyright (c) Steve Scherf et al.
# Submitted via: dBpowerAMP V4.0
# Normalized: r0:TRMNUM
#
DISCID=db11370e
DTITLE=Makaveli - Vol. 8: The Remix Album 
DYEAR=2000
DGENRE=Dance
TTITLE0=Master Mix: How Do You Want It/Hit 'Em Up/Defintion Of A Thug Nigga/California Love...
TTITLE1=When We Ride On Our Enemy (Bounce Mix)
TTITLE2=Will There Ever Be Peace (Bass Line Mix)
TTITLE3=Now Whatcha Gonna Do (Dangerous Mix)
TTITLE4=Words To My First Born (Put Your Hands Where My Eyes Can See Mix)
TTITLE5=Who Do You Believe In? (Luv 2 Luv U Mix)
TTITLE6=Little Homies (Pistol Grip Pump Mix)
TTITLE7=96 Big Bodies Sittin' On Chrome (More Bounce Mix)
TTITLE8=Military State Of Mind (Atomic Dog Mix)
TTITLE9=What's Next? (Flex Mix)
TTITLE10=Tear Drops (You Make Me Wanna Mix)
TTITLE11=Wendy Williams Diss (Rapper Dapper Snapper Mix)
TTITLE12=There'll Never Be Peace! (Independence Day Mix)
TTITLE13=It's Over Mix (Straight Ballin/I'd Rather Be Your Nigga/I'm A Ridah/It's Over!)
EXTD=
EXTT0=
EXTT1=
EXTT2=
EXTT3=
EXTT4=
EXTT5=
EXTT6=
EXTT7=
EXTT8=
EXTT9=
EXTT10=
EXTT11=
EXTT12=
EXTT13=
PLAYORDER=
